<svg width="464" height="144" viewBox="0 0 464 144"
     xmlns="http://www.w3.org/2000/svg"
     fill="none"
     stroke="#000"
     stroke-width="2.5"
     stroke-linecap="round">

  <!-- function шиг бодоорой: x,y = cell position -->

  <!-- Row 1 -->
  <g transform="translate(0,0)">
    <circle cx="32" cy="32" r="28"/>
    <line x1="16" y1="32" x2="48" y2="32"/>
  </g>

  <g transform="translate(80,0)">
    <circle cx="32" cy="32" r="28"/>
    <line x1="18" y1="18" x2="46" y2="46"/>
  </g>

  <g transform="translate(160,0)">
    <circle cx="32" cy="32" r="28"/>
    <line x1="46" y1="18" x2="18" y2="46"/>
  </g>

  <g transform="translate(240,0)">
    <circle cx="32" cy="32" r="28"/>
    <line x1="32" y1="16" x2="32" y2="48"/>
  </g>

  <g transform="translate(320,0)">
    <circle cx="32" cy="32" r="28"/>
    <line x1="18" y1="18" x2="46" y2="46"/>
  </g>

  <g transform="translate(400,0)">
    <circle cx="32" cy="32" r="28"/>
    <line x1="16" y1="32" x2="48" y2="32"/>
  </g>

  <!-- Row 2 -->
  <g transform="translate(0,80)">
    <circle cx="32" cy="32" r="28"/>
    <line x1="46" y1="18" x2="18" y2="46"/>
  </g>

  <g transform="translate(80,80)">
    <circle cx="32" cy="32" r="28"/>
    <line x1="32" y1="16" x2="32" y2="48"/>
  </g>

  <g transform="translate(160,80)">
    <circle cx="32" cy="32" r="28"/>
    <line x1="16" y1="32" x2="48" y2="32"/>
  </g>

  <g transform="translate(240,80)">
    <circle cx="32" cy="32" r="28"/>
    <line x1="18" y1="18" x2="46" y2="46"/>
  </g>

  <g transform="translate(320,80)">
    <circle cx="32" cy="32" r="28"/>
    <line x1="32" y1="16" x2="32" y2="48"/>
  </g>

  <g transform="translate(400,80)">
    <circle cx="32" cy="32" r="28"/>
    <line x1="46" y1="18" x2="18" y2="46"/>
  </g>

</svg>
